<svg xmlns="http://www.w3.org/2000/svg" width="512" height="512" viewBox="0 0 512 512" version="1.1">
	<path d="M 228.621 26.495 C 206.100 29.691, 178.229 38.312, 157.500 48.495 C 125.981 63.979, 97.528 87.204, 76.208 114.849 C 50.668 147.968, 33.193 191.354, 28.880 232.349 C 27.432 246.116, 28.287 276.517, 30.460 288.500 C 39.593 338.877, 61.429 382.733, 94.261 416.643 C 129.952 453.506, 174.754 477.096, 222.253 484.038 C 248.135 487.820, 281.979 486.568, 306 480.939 C 346.690 471.404, 381.579 452.170, 411.860 422.578 C 433.698 401.237, 448.547 380.891, 461.544 354.500 C 473.074 331.087, 478.788 311.653, 482.565 283 C 484.768 266.292, 484.088 235.519, 481.151 219 C 469.619 154.142, 427.343 91.885, 371.178 57.050 C 348.821 43.184, 321.358 32.763, 292.976 27.378 C 281.136 25.131, 242.017 24.594, 228.621 26.495 M 243 42.633 C 241.625 42.832, 236.450 43.499, 231.500 44.116 C 212.219 46.520, 186.053 54.397, 169 62.931 C 114.978 89.969, 73.786 138.884, 56.032 197.080 C 50.447 215.386, 47.366 241.575, 48.747 259 L 49.500 268.500 53.349 258.132 C 55.785 251.572, 58.089 242.574, 59.622 233.632 C 70.600 169.594, 100.782 121.348, 151 87.562 C 206.224 50.408, 278.063 45.017, 337.815 73.542 C 371.913 89.821, 399.524 113.202, 418.890 142.196 C 435.431 166.961, 447.471 198.121, 452.981 230.424 C 454.100 236.983, 455.231 242.565, 455.495 242.828 C 456.601 243.935, 459.078 235.420, 460.175 226.739 C 461.564 215.738, 460.142 206.398, 454.479 189.320 C 425.795 102.832, 342.598 41.047, 256.289 42.136 C 250.355 42.211, 244.375 42.435, 243 42.633 M 234.628 94.573 C 168.655 104.833, 114.769 155.800, 99.375 222.500 C 96.865 233.373, 96.602 236.331, 96.566 254 C 96.506 283.873, 100.245 299.877, 113.503 326.500 C 127.468 354.542, 146.915 377.531, 169.472 392.663 C 184.505 402.748, 206.515 411.567, 228 416.114 C 241.773 419.030, 267.870 419.282, 281.376 416.631 C 335.627 405.981, 376.776 374.498, 399.920 325.934 C 410.116 304.539, 414.787 285.715, 415.692 262.376 C 417.108 225.873, 408.763 196.782, 387.873 165.398 C 377.634 150.016, 357.626 130.107, 341.965 119.716 C 322.025 106.487, 299.852 97.437, 280.084 94.457 C 268.265 92.675, 246.476 92.731, 234.628 94.573 M 232 106.538 C 199.862 111.619, 167.890 129.726, 146.684 154.854 C 133.811 170.109, 120.205 194.041, 114.583 211.318 C 109.691 226.353, 108.539 234.935, 108.519 256.500 C 108.499 277.799, 109.224 282.936, 114.726 300.500 C 120.387 318.570, 136.220 346.264, 141.672 347.633 C 144.758 348.407, 167.892 346.413, 173.516 344.887 C 176.492 344.080, 179.655 341.617, 186.014 335.153 C 198.383 322.582, 216.060 302.854, 217.256 300.287 C 218.099 298.478, 217.624 296.812, 214.643 291.141 C 209.212 280.806, 210.229 280.717, 217.061 290.930 C 223.263 300.202, 226.956 303.781, 233.044 306.423 C 235.465 307.473, 235.899 307.933, 234.492 307.961 C 233.388 307.982, 230.371 306.875, 227.788 305.500 C 225.205 304.125, 222.690 303, 222.199 303 C 221.709 303, 214.033 311.516, 205.143 321.924 C 180.924 350.278, 182.008 349.556, 158.702 352.917 C 151.663 353.933, 145.613 355.054, 145.258 355.409 C 144.177 356.490, 156.906 368.715, 167.350 376.625 C 177.545 384.348, 196.878 394.723, 209.581 399.290 C 224.800 404.760, 235.957 406.503, 255.500 406.463 C 274.973 406.422, 284.477 404.946, 300.714 399.442 C 319.929 392.928, 349.884 374.922, 361.912 362.658 C 369.348 355.075, 370.081 355.788, 353 353.985 C 346.589 353.308, 340.857 352.093, 338.282 350.865 C 334.019 348.831, 319.548 333.981, 302.106 313.741 C 297.489 308.383, 293.608 304, 293.482 304 C 293.355 304, 291.169 305.164, 288.624 306.587 L 283.995 309.174 280.921 306.587 C 277.708 303.883, 277.770 303.271, 281.078 305.042 C 282.547 305.828, 284.091 305.611, 287.383 304.155 C 289.780 303.094, 292.052 301.726, 292.430 301.113 C 292.808 300.501, 293.487 300, 293.939 300 C 294.391 300, 303.428 309.628, 314.022 321.396 C 325.108 333.710, 334.935 343.719, 337.174 344.977 C 341.515 347.418, 355.168 348.886, 365.203 347.992 C 370.001 347.564, 371.482 346.930, 374.536 343.992 C 382.361 336.467, 393.386 315.130, 398.379 297.847 C 403.341 280.674, 404.299 274.244, 404.320 258 C 404.353 231.660, 400.275 213.308, 389.542 191.500 C 381.646 175.455, 375.034 165.475, 364.350 153.475 C 342.230 128.631, 312.639 111.559, 283.074 106.586 C 271.486 104.636, 244.187 104.611, 232 106.538 M 240.799 117.750 C 237.059 121.745, 236.786 123.760, 238.959 131.357 C 240.315 136.098, 241.083 142.784, 241.484 153.335 C 242.524 180.700, 243.096 187.304, 244.320 186.080 C 246.512 183.888, 246.278 115, 244.079 115 C 243.691 115, 242.216 116.237, 240.799 117.750 M 271.681 116.557 C 270.383 120.937, 266.785 156.548, 267.737 155.596 C 267.958 155.375, 268.804 152.563, 269.617 149.347 C 270.430 146.131, 272.615 140.350, 274.472 136.500 C 276.330 132.650, 278.085 127.781, 278.374 125.679 C 278.827 122.374, 278.450 121.370, 275.577 118.236 C 272.596 114.983, 272.199 114.811, 271.681 116.557 M 328 133.323 C 328 133.540, 330.448 135.342, 333.440 137.329 C 347.257 146.503, 362.456 162.642, 368.467 174.522 C 373.686 184.837, 370.392 196.299, 360.173 203.380 C 355.994 206.276, 328.445 218.036, 316.696 221.939 C 311.595 223.633, 309.971 224.609, 310.207 225.838 C 310.381 226.739, 311.291 227.625, 312.229 227.806 C 313.913 228.130, 324.927 223.903, 342.500 216.188 C 347.450 214.015, 355.100 211.007, 359.500 209.504 C 368.393 206.468, 373.203 202.344, 376.997 194.505 C 378.787 190.809, 378.953 189.538, 378.072 186.268 C 376.019 178.643, 359.209 156.717, 348.063 147.123 C 339.583 139.825, 328 131.858, 328 133.323 M 171.872 138.750 C 170.629 140.336, 170.664 140.371, 172.250 139.128 C 173.916 137.821, 174.445 137, 173.622 137 C 173.415 137, 172.627 137.787, 171.872 138.750 M 217 141.874 C 194.307 149.344, 174.704 164.273, 161.027 184.500 C 151.034 199.280, 150.861 200.783, 158.750 204.264 C 167.254 208.016, 195.406 217, 198.661 217 C 200.879 217, 203.184 215.239, 209.489 208.724 C 215.915 202.086, 219.304 199.518, 226.620 195.744 C 233.774 192.054, 236.016 190.376, 237.016 187.961 C 237.976 185.643, 238.155 179.650, 237.740 163.692 C 237.437 152.036, 236.874 141.713, 236.488 140.750 C 235.418 138.081, 227.057 138.564, 217 141.874 M 276.725 140.752 C 273.414 144.409, 272.700 148.600, 272.234 167.097 C 271.907 180.091, 272.115 186.346, 272.923 187.856 C 273.559 189.045, 277.732 191.854, 282.195 194.098 C 288.346 197.191, 292.722 200.486, 300.277 207.716 L 310.245 217.255 315.372 216.687 C 322.934 215.850, 353.057 204.069, 357.183 200.335 C 358.830 198.844, 358.823 198.573, 357.036 195.071 C 353.553 188.244, 343.381 175.561, 334.909 167.482 C 322.036 155.207, 308.325 146.712, 292.941 141.480 C 284.286 138.536, 278.947 138.296, 276.725 140.752 M 161.916 146.764 C 149.775 157.547, 142.235 166.805, 140.547 173 C 140.144 174.476, 140.951 173.658, 142.516 171.001 C 146.653 163.981, 151.539 158.225, 161.397 148.759 C 166.403 143.952, 170.275 140.020, 170 140.023 C 169.725 140.026, 166.087 143.059, 161.916 146.764 M 95.699 165.250 C 89.954 175.589, 82.105 194.606, 78.961 205.800 C 73.507 225.225, 72.571 232.583, 72.572 256 C 72.574 281.177, 73.846 288.840, 82.118 313.500 C 93.068 346.143, 110.116 372.771, 135.362 396.665 C 158.648 418.702, 191.227 435.933, 221.134 442.027 C 277.544 453.523, 338.345 435.043, 382.377 393.018 C 397.806 378.292, 412.522 358.786, 421.245 341.500 C 429.874 324.400, 437.741 298.583, 439.978 280.026 C 440.939 272.057, 441.320 241.335, 440.432 243.500 C 440.051 244.428, 438.130 255.534, 437.743 259.053 C 437.473 261.497, 434.173 261.189, 433.772 258.683 C 433.580 257.482, 433.068 260.775, 432.635 266 C 428.066 321.081, 396.890 373.417, 350.773 403.419 C 325.754 419.695, 298.437 428.714, 266.754 431.158 C 229.711 434.015, 194.642 425.212, 164.241 405.425 C 110.713 370.585, 74.940 299.974, 80.818 240.761 C 82.936 219.427, 89.286 196.587, 98.104 178.584 C 101.903 170.829, 101.946 170.635, 99.157 173.812 L 96.250 177.124 96.449 171.312 C 96.559 168.115, 97.414 164.037, 98.350 162.250 C 101.407 156.411, 99.261 158.839, 95.699 165.250 M 132.621 179.384 C 129.183 185.250, 129.498 187.898, 134.537 195.490 C 139.187 202.496, 145.007 207.671, 151.429 210.511 C 157.927 213.385, 193.719 224.771, 197.569 225.189 C 199.498 225.399, 200.518 225.012, 200.704 224 C 200.910 222.875, 196.049 220.876, 181.246 216 C 170.393 212.425, 159.035 208.314, 156.007 206.865 C 147.629 202.857, 140.070 192.122, 136.757 179.529 L 135.449 174.558 132.621 179.384 M 250.699 203.780 C 247.557 207.252, 249.142 211.958, 253.968 213.490 C 256.399 214.261, 259.594 212.627, 261.079 209.852 C 263.748 204.865, 254.574 199.498, 250.699 203.780 M 235.578 217.510 C 230.096 220.425, 222.549 226.518, 220.443 229.729 C 219.089 231.794, 219.239 232.296, 222.491 236.556 C 224.421 239.084, 226 241.657, 226 242.272 C 226 242.888, 227.274 241.391, 228.832 238.946 C 238.081 224.427, 253.534 218.908, 267.156 225.259 C 273.813 228.363, 280.457 234.069, 282.984 238.852 C 284.693 242.086, 284.917 242.227, 284.956 240.095 C 284.983 238.608, 286.605 236.164, 289.205 233.690 L 293.411 229.689 288.955 225.843 C 284.101 221.653, 272.199 215, 269.558 215 C 268.651 215, 265.795 216.125, 263.212 217.500 C 260.441 218.975, 256.865 220, 254.490 220 C 251.844 220, 249.204 219.143, 246.785 217.500 C 242.219 214.397, 241.430 214.398, 235.578 217.510 M 437.079 223.583 C 437.127 224.748, 437.364 224.985, 437.683 224.188 C 437.972 223.466, 437.936 222.603, 437.604 222.271 C 437.272 221.939, 437.036 222.529, 437.079 223.583 M 251.111 226.134 C 242.870 227.653, 233.724 233.884, 230.389 240.250 C 228.318 244.204, 229.288 243.676, 234.676 237.916 C 242.266 229.801, 247.016 227.500, 256.176 227.500 C 263.547 227.500, 264.085 227.663, 269.676 231.594 C 272.879 233.846, 276.850 237.531, 278.500 239.783 C 281.875 244.390, 283.086 245.045, 282.239 241.806 C 281.327 238.318, 273.364 231.050, 267.696 228.532 C 261.362 225.718, 256.884 225.070, 251.111 226.134 M 438.158 230 C 438.158 231.375, 438.385 231.938, 438.662 231.250 C 438.940 230.563, 438.940 229.438, 438.662 228.750 C 438.385 228.063, 438.158 228.625, 438.158 230 M 246.355 233.447 C 230.268 240.446, 226.300 263.146, 238.952 275.798 C 243.497 280.343, 249.603 282.305, 257.768 281.843 C 270.863 281.103, 278.519 274.562, 281.190 261.832 C 284.602 245.563, 272.638 231.916, 255.072 232.039 C 252.007 232.061, 248.085 232.694, 246.355 233.447 M 359.421 235.498 C 346.156 239.008, 335.782 243.115, 337.029 244.362 C 337.288 244.621, 342.128 243.742, 347.785 242.408 C 369.823 237.211, 379.941 237.300, 390.354 242.780 C 393.184 244.270, 395.837 245.641, 396.250 245.828 C 398.246 246.730, 396.634 243.005, 393.750 240.050 C 386.482 232.605, 375.737 231.180, 359.421 235.498 M 129.488 235.931 C 123.273 238.145, 116.067 241.735, 113.750 243.771 C 112.197 245.137, 111.196 251, 112.515 251 C 112.799 251, 115.435 249.404, 118.372 247.453 C 130.946 239.105, 143.475 237.256, 162.478 240.942 C 167.965 242.007, 172.647 242.687, 172.881 242.452 C 173.648 241.686, 166.569 239.179, 156.257 236.565 C 144.556 233.599, 136.567 233.410, 129.488 235.931 M 439.079 236.583 C 439.127 237.748, 439.364 237.985, 439.683 237.188 C 439.972 236.466, 439.936 235.603, 439.604 235.271 C 439.272 234.939, 439.036 235.529, 439.079 236.583 M 295.250 237.491 C 291.296 239.210, 290.800 243.046, 294.223 245.443 C 297.416 247.680, 300.726 247.365, 303.535 244.556 C 306.126 241.965, 306.004 239.534, 303.169 237.250 C 301.200 235.663, 299.324 235.720, 295.250 237.491 M 209.881 240.895 C 207.871 242.523, 207.681 243.192, 208.538 245.628 C 210.714 251.816, 220 250.558, 220 244.075 C 220 241.744, 219.400 240.986, 216.851 240.098 C 212.737 238.664, 212.620 238.677, 209.881 240.895 M 139.028 243.113 C 135.485 244.527, 135.032 245.685, 135.015 253.372 C 134.966 275.716, 142.128 299.296, 155.563 321.014 C 166.603 338.863, 172.152 342.317, 179.466 335.896 C 187.441 328.894, 204 307.177, 204 303.720 C 204 302.649, 202.009 298.561, 199.576 294.636 C 193.976 285.603, 191.319 277.640, 189.989 265.907 C 188.838 255.747, 188.324 254.715, 183.067 252.035 C 179.516 250.225, 159.865 245.121, 148.566 243.075 C 141.719 241.835, 142.237 241.833, 139.028 243.113 M 356 244.633 C 347.014 247.004, 334.768 251.142, 330.710 253.179 C 326.103 255.491, 325.496 256.972, 323.995 269.546 C 322.677 280.583, 320.405 287.499, 315.159 296.441 C 310.615 304.187, 310.618 307.346, 315.177 314.212 C 320.959 322.919, 332.967 336.816, 336.707 339.128 C 340.163 341.264, 340.170 341.264, 342.833 339.291 C 349.759 334.161, 362.407 311.231, 367.814 294 C 373.188 276.877, 375.777 252.805, 373.025 245.565 C 372.141 243.240, 371.555 243.009, 366.775 243.091 C 363.874 243.141, 359.025 243.835, 356 244.633 M 286.612 249.500 C 286.872 251.150, 287.466 254.525, 287.932 257 L 288.781 261.500 288.845 257 C 288.881 254.525, 288.286 251.150, 287.525 249.500 L 286.139 246.500 286.612 249.500 M 219 253.687 C 217.075 254.347, 214.713 254.913, 213.750 254.944 C 210.027 255.064, 212.421 272.133, 217.534 281.929 C 221.617 289.751, 221.620 289.753, 223.906 286.847 C 225.020 285.430, 227.297 283.705, 228.966 283.014 C 232.709 281.464, 236.699 282.853, 241.076 287.230 C 242.684 288.838, 244 289.688, 244 289.120 C 244 288.551, 240.881 285.597, 237.069 282.555 C 228.982 276.103, 224.538 268.352, 223.272 258.493 L 222.500 252.486 219 253.687 M 290.332 257.907 C 290.162 265.330, 287.328 271.641, 281.231 278.173 C 278.006 281.629, 277.404 282.707, 278.919 282.311 C 282.133 281.471, 285.653 282.757, 289.582 286.207 L 293.202 289.384 295.072 286.942 C 298.471 282.504, 300.207 275.737, 300.732 264.885 C 301.015 259.047, 300.853 254.028, 300.373 253.732 C 299.893 253.437, 297.469 252.891, 294.986 252.519 L 290.472 251.844 290.332 257.907 M 307.669 261.250 C 306.739 272.054, 304.408 279.627, 299.450 287.959 C 294.538 296.213, 293.490 300.403, 297.565 295.500 C 301.387 290.900, 305.811 281.210, 307.382 274 C 309.258 265.388, 310.278 254, 309.175 254 C 308.690 254, 308.013 257.262, 307.669 261.250 M 226.576 263 C 228.354 269.562, 232.686 275.865, 237.155 278.391 C 240.252 280.142, 240.188 280.009, 236.283 276.591 C 233.933 274.535, 230.700 270.155, 228.982 266.700 C 227.286 263.290, 226.204 261.625, 226.576 263 M 278.656 274.560 C 274.034 279.965, 268.969 282.702, 260.119 284.577 L 253.500 285.979 259.175 285.569 C 268.548 284.893, 278.170 279.440, 281.562 272.881 C 282.381 271.296, 282.927 270.015, 282.776 270.033 C 282.624 270.051, 280.770 272.088, 278.656 274.560 M 268 289.714 C 265.744 290.713, 261.196 291.306, 255.203 291.382 L 245.905 291.500 244.024 295.699 L 242.143 299.899 246.706 300.583 C 251.901 301.362, 262.761 300.574, 268.101 299.029 C 271.636 298.007, 271.700 297.897, 271.601 293 C 271.545 290.257, 271.500 288.046, 271.500 288.088 C 271.500 288.129, 269.925 288.861, 268 289.714 M 229.223 290.557 C 224.955 293.546, 227.252 299, 232.779 299 C 237.231 299, 239.787 292.027, 236.066 290.035 C 233.409 288.613, 231.824 288.734, 229.223 290.557 M 278.655 290.829 C 276.577 293.125, 276.548 295.405, 278.571 297.429 C 282.859 301.716, 290.632 296.878, 288.163 291.459 C 286.763 288.386, 281.199 288.017, 278.655 290.829 M 230.808 325.937 C 227.732 328.356, 210.931 350.169, 207.438 356.279 C 206.110 358.600, 205.019 361.312, 205.012 362.305 C 204.997 364.487, 211.946 367.758, 223.453 370.987 C 247.189 377.647, 267.227 377.506, 291.374 370.509 C 303.032 367.130, 306 365.533, 306 362.640 C 306 358.018, 286.918 329.167, 281.716 325.925 C 278.273 323.778, 278.092 323.784, 264.860 326.498 C 256.758 328.159, 255.638 328.168, 246.860 326.648 C 241.712 325.756, 236.583 324.768, 235.462 324.452 C 234.209 324.099, 232.417 324.670, 230.808 325.937 M 305.003 345.626 C 305.001 346.245, 306.084 349.203, 307.410 352.200 C 312.127 362.866, 316 375.226, 316 379.612 C 316 382.061, 315.348 385.625, 314.551 387.532 C 313.754 389.439, 313.319 391, 313.584 391 C 314.877 391, 323.786 385.962, 324.930 384.584 C 326.774 382.363, 324.288 375.217, 318.029 364.742 C 311.352 353.566, 305.007 344.255, 305.003 345.626 M 192.891 371.793 C 188.784 377.151, 186 382.224, 186 384.352 C 186 385.150, 187.463 386.731, 189.250 387.864 L 192.500 389.924 195.250 381.757 C 197.886 373.930, 198.834 366.953, 197.250 367.043 C 196.838 367.066, 194.876 369.204, 192.891 371.793" stroke="none" fill="rgb(63 63 70)" fill-rule="evenodd"/>
</svg>